<?xml version="1.0" encoding="UTF-8" standalone="no"?>
<!DOCTYPE svg PUBLIC "-//W3C//DTD SVG 1.1//EN" "http://www.w3.org/Graphics/SVG/1.1/DTD/svg11.dtd">
<svg width="100%" height="100%" viewBox="0 0 100 100" version="1.1" xmlns="http://www.w3.org/2000/svg" xmlns:xlink="http://www.w3.org/1999/xlink" xml:space="preserve" xmlns:serif="http://www.serif.com/" style="fill-rule:evenodd;clip-rule:evenodd;stroke-linejoin:round;stroke-miterlimit:1.41421;">
    <circle cx="50" cy="50" r="48" style="fill:rgb(3,153,255);"/>
    <g transform="matrix(0.122869,0,0,0.122869,50,50)">
        <g transform="matrix(1,0,0,1,-228.515,-228.515)">
            <clipPath id="_clip1">
                <rect x="0" y="0" width="457.03" height="457.03"/>
            </clipPath>
            <g clip-path="url(#_clip1)">
                <path d="M421.512,207.074L335.717,292.841C288.365,340.221 211.548,340.221 164.188,292.841C156.728,285.402 150.892,277.02 145.767,268.376L185.631,228.515C187.526,226.604 189.866,225.509 192.102,224.219C194.858,233.635 199.669,242.549 207.074,249.955C230.722,273.622 269.202,273.589 292.836,249.955L378.604,164.19C402.27,140.526 402.27,102.055 378.604,78.409C354.969,54.763 316.499,54.763 292.836,78.409L262.337,108.941C237.587,99.304 210.922,96.713 184.964,100.517L249.955,35.528C297.335,-11.843 374.132,-11.843 421.512,35.528C468.869,82.897 468.869,159.706 421.512,207.074ZM194.708,348.104L164.187,378.636C140.541,402.27 102.059,402.27 78.409,378.636C54.761,354.969 54.761,316.498 78.409,292.841L164.187,207.074C187.852,183.412 226.308,183.412 249.954,207.074C257.342,214.464 262.158,223.376 264.94,232.78C267.189,231.473 269.5,230.411 271.394,228.514L311.255,188.669C306.163,179.991 300.297,171.639 292.834,164.192C245.486,116.821 168.662,116.821 121.291,164.192L35.526,249.96C-11.84,297.345 -11.84,374.132 35.526,421.513C82.897,468.869 159.703,468.869 207.073,421.513L272.081,356.51C246.109,360.336 219.437,357.723 194.708,348.104Z" style="fill:white;fill-rule:nonzero;"/>
            </g>
        </g>
    </g>
</svg>
